<?xml version="1.0" encoding="UTF-8" standalone="no"?>
<svg
   xmlns:dc="http://purl.org/dc/elements/1.1/"
   xmlns:cc="http://creativecommons.org/ns#"
   xmlns:rdf="http://www.w3.org/1999/02/22-rdf-syntax-ns#"
   xmlns:svg="http://www.w3.org/2000/svg"
   xmlns="http://www.w3.org/2000/svg"
   xmlns:sodipodi="http://sodipodi.sourceforge.net/DTD/sodipodi-0.dtd"
   xmlns:inkscape="http://www.inkscape.org/namespaces/inkscape"
   viewBox="0 -256 1792 1792"
   id="svg2"
   version="1.1"
   inkscape:version="0.48.3.1 r9886"
   width="100%"
   height="100%"
   sodipodi:docname="volume_up_font_awesome.svg">
  <metadata
     id="metadata12">
    <rdf:RDF>
      <cc:Work
         rdf:about="">
        <dc:format>image/svg+xml</dc:format>
        <dc:type
           rdf:resource="http://purl.org/dc/dcmitype/StillImage" />
      </cc:Work>
    </rdf:RDF>
  </metadata>
  <defs
     id="defs10" />
  <sodipodi:namedview
     pagecolor="#ffffff"
     bordercolor="#666666"
     borderopacity="1"
     objecttolerance="10"
     gridtolerance="10"
     guidetolerance="10"
     inkscape:pageopacity="0"
     inkscape:pageshadow="2"
     inkscape:window-width="1024"
     inkscape:window-height="719"
     id="namedview8"
     showgrid="false"
     inkscape:zoom="0.13169643"
     inkscape:cx="896"
     inkscape:cy="896"
     inkscape:window-x="0"
     inkscape:window-y="25"
     inkscape:window-maximized="1"
     inkscape:current-layer="svg2" />
  <g
     transform="matrix(1,0,0,-1,53.152542,1285.4237)"
     id="g4">
    <path
       d="M 768,1184 V 96 Q 768,70 749,51 730,32 704,32 678,32 659,51 L 326,384 H 64 Q 38,384 19,403 0,422 0,448 v 384 q 0,26 19,45 19,19 45,19 h 262 l 333,333 q 19,19 45,19 26,0 45,-19 19,-19 19,-45 z m 384,-544 q 0,-76 -42.5,-141.5 Q 1067,433 997,405 q -10,-5 -25,-5 -26,0 -45,18.5 -19,18.5 -19,45.5 0,21 12,35.5 12,14.5 29,25 17,10.5 34,23 17,12.5 29,35.5 12,23 12,57 0,34 -12,57 -12,23 -29,35.5 -17,12.5 -34,23 -17,10.5 -29,25 -12,14.5 -12,35.5 0,27 19,45.5 19,18.5 45,18.5 15,0 25,-5 70,-27 112.5,-93 42.5,-66 42.5,-142 z m 256,0 Q 1408,487 1323,357.5 1238,228 1098,169 q -13,-5 -25,-5 -27,0 -46,19 -19,19 -19,45 0,39 39,59 56,29 76,44 74,54 115.5,135.5 41.5,81.5 41.5,173.5 0,92 -41.5,173.5 Q 1197,895 1123,949 q -20,15 -76,44 -39,20 -39,59 0,26 19,45 19,19 45,19 13,0 26,-5 140,-59 225,-188.5 85,-129.5 85,-282.5 z m 256,0 Q 1664,410 1537,217.5 1410,25 1199,-66 q -13,-5 -26,-5 -26,0 -45,19 -19,19 -19,45 0,36 39,59 7,4 22.5,10.5 15.5,6.5 22.5,10.5 46,25 82,51 123,91 192,227 69,136 69,289 0,153 -69,289 -69,136 -192,227 -36,26 -82,51 -7,4 -22.5,10.5 -15.5,6.5 -22.5,10.5 -39,23 -39,59 0,26 19,45 19,19 45,19 13,0 26,-5 211,-91 338,-283.5 Q 1664,870 1664,640 z"
       id="path6"
       inkscape:connector-curvature="0"
       style="fill:currentColor" />
  </g>
</svg>
